<svg xmlns="http://www.w3.org/2000/svg" width="1600" height="1000" viewBox="0 0 1600 1000">
  <defs>
    <linearGradient id="sky" x1="0" y1="0" x2="0" y2="1"><stop offset="0" stop-color="#1b3a5c"/><stop offset="0.7" stop-color="#6f93b8"/><stop offset="1" stop-color="#e6cfa6"/></linearGradient>
    <linearGradient id="ground" x1="0" y1="0" x2="0" y2="1"><stop offset="0" stop-color="#46607a"/><stop offset="1" stop-color="#1d2a39"/></linearGradient>
    <radialGradient id="glow" cx="0.5" cy="0.5" r="0.5"><stop offset="0" stop-color="#ffe6b0" stop-opacity="1"/><stop offset="1" stop-color="#ffe6b0" stop-opacity="0"/></radialGradient>
  </defs>
  <rect width="1600" height="1000" fill="url(#sky)"/>
  <circle cx="1152" cy="300" r="264" fill="url(#glow)"/>
  <circle cx="1152" cy="300" r="110" fill="#ffe6b0"/>
  <path d="M0 580 L480 500 L800 600 L1184 510 L1600 590 L1600 640 L0 640 Z" fill="#13283f" opacity="0.55"/>
  <rect y="640" width="1600" height="360" fill="url(#ground)"/>
  <path d="M0 640 L640 590 L992 660 L1600 610 L1600 640 Z" fill="#13283f" opacity="0.35"/>
  <ellipse cx="352" cy="640" rx="91" ry="16" fill="#000" opacity="0.18"/>
  <rect x="317" y="380" width="70" height="260" rx="35" fill="#0d1825"/>
  <circle cx="352" cy="366" r="43.4" fill="#0d1825"/>
</svg>