<svg xmlns="http://www.w3.org/2000/svg" width="2400" height="900" viewBox="0 0 2400 900">
  <defs>
    <linearGradient id="sky" x1="0" y1="0" x2="0" y2="1"><stop offset="0" stop-color="#10243f"/><stop offset="0.7" stop-color="#5a6f93"/><stop offset="1" stop-color="#caa37a"/></linearGradient>
    <linearGradient id="ground" x1="0" y1="0" x2="0" y2="1"><stop offset="0" stop-color="#3a4a63"/><stop offset="1" stop-color="#161f2e"/></linearGradient>
    <radialGradient id="glow" cx="0.5" cy="0.5" r="0.5"><stop offset="0" stop-color="#ffd9a0" stop-opacity="1"/><stop offset="1" stop-color="#ffd9a0" stop-opacity="0"/></radialGradient>
  </defs>
  <rect width="2400" height="900" fill="url(#sky)"/>
  <circle cx="1728" cy="270" r="237.6" fill="url(#glow)"/>
  <circle cx="1728" cy="270" r="99" fill="#ffd9a0"/>
  <path d="M0 522 L720 450 L1200 540 L1776 459 L2400 531 L2400 576 L0 576 Z" fill="#0d1929" opacity="0.55"/>
  <rect y="576" width="2400" height="324" fill="url(#ground)"/>
  <path d="M0 576 L960 531 L1488 594 L2400 549 L2400 576 Z" fill="#0d1929" opacity="0.35"/>
  <ellipse cx="528" cy="576" rx="81.9" ry="14" fill="#000" opacity="0.18"/>
  <rect x="496.5" y="342" width="63" height="234" rx="31.5" fill="#0a121f"/>
  <circle cx="528" cy="329.4" r="39.06" fill="#0a121f"/>
</svg>