<svg xmlns="http://www.w3.org/2000/svg" width="1000" height="1000" viewBox="0 0 1000 1000">
  <defs>
    <linearGradient id="sky" x1="0" y1="0" x2="0" y2="1"><stop offset="0" stop-color="#243b2e"/><stop offset="0.7" stop-color="#7fa07f"/><stop offset="1" stop-color="#d8d3a0"/></linearGradient>
    <linearGradient id="ground" x1="0" y1="0" x2="0" y2="1"><stop offset="0" stop-color="#4f6b4a"/><stop offset="1" stop-color="#22301f"/></linearGradient>
    <radialGradient id="glow" cx="0.5" cy="0.5" r="0.5"><stop offset="0" stop-color="#f3e9b0" stop-opacity="1"/><stop offset="1" stop-color="#f3e9b0" stop-opacity="0"/></radialGradient>
  </defs>
  <rect width="1000" height="1000" fill="url(#sky)"/>
  <circle cx="720" cy="300" r="264" fill="url(#glow)"/>
  <circle cx="720" cy="300" r="110" fill="#f3e9b0"/>
  <path d="M0 580 L300 500 L500 600 L740 510 L1000 590 L1000 640 L0 640 Z" fill="#1a2a1f" opacity="0.55"/>
  <rect y="640" width="1000" height="360" fill="url(#ground)"/>
  <path d="M0 640 L400 590 L620 660 L1000 610 L1000 640 Z" fill="#1a2a1f" opacity="0.35"/>
  <ellipse cx="220" cy="640" rx="91" ry="16" fill="#000" opacity="0.18"/>
  <rect x="185" y="380" width="70" height="260" rx="35" fill="#101a12"/>
  <circle cx="220" cy="366" r="43.4" fill="#101a12"/>
</svg>