<svg xmlns="http://www.w3.org/2000/svg" width="800" height="1200" viewBox="0 0 800 1200">
  <defs>
    <linearGradient id="sky" x1="0" y1="0" x2="0" y2="1"><stop offset="0" stop-color="#3a2747"/><stop offset="0.7" stop-color="#9c7fa8"/><stop offset="1" stop-color="#e9b6a6"/></linearGradient>
    <linearGradient id="ground" x1="0" y1="0" x2="0" y2="1"><stop offset="0" stop-color="#5e4a63"/><stop offset="1" stop-color="#241b2c"/></linearGradient>
    <radialGradient id="glow" cx="0.5" cy="0.5" r="0.5"><stop offset="0" stop-color="#ffd2c2" stop-opacity="1"/><stop offset="1" stop-color="#ffd2c2" stop-opacity="0"/></radialGradient>
  </defs>
  <rect width="800" height="1200" fill="url(#sky)"/>
  <circle cx="576" cy="360" r="211.2" fill="url(#glow)"/>
  <circle cx="576" cy="360" r="88" fill="#ffd2c2"/>
  <path d="M0 696 L240 600 L400 720 L592 612 L800 708 L800 768 L0 768 Z" fill="#241730" opacity="0.55"/>
  <rect y="768" width="800" height="432" fill="url(#ground)"/>
  <path d="M0 768 L320 708 L496 792 L800 732 L800 768 Z" fill="#241730" opacity="0.35"/>
  <ellipse cx="176" cy="768" rx="72.8" ry="19" fill="#000" opacity="0.18"/>
  <rect x="148" y="456" width="56" height="312" rx="28" fill="#140e1b"/>
  <circle cx="176" cy="444.8" r="34.72" fill="#140e1b"/>
</svg>