<svg xmlns="http://www.w3.org/2000/svg" width="600" height="1500" viewBox="0 0 600 1500">
  <defs>
    <linearGradient id="sky" x1="0" y1="0" x2="0" y2="1"><stop offset="0" stop-color="#13303a"/><stop offset="0.7" stop-color="#5f97a0"/><stop offset="1" stop-color="#d6c6a0"/></linearGradient>
    <linearGradient id="ground" x1="0" y1="0" x2="0" y2="1"><stop offset="0" stop-color="#3f6168"/><stop offset="1" stop-color="#14272c"/></linearGradient>
    <radialGradient id="glow" cx="0.5" cy="0.5" r="0.5"><stop offset="0" stop-color="#dff0ea" stop-opacity="1"/><stop offset="1" stop-color="#dff0ea" stop-opacity="0"/></radialGradient>
  </defs>
  <rect width="600" height="1500" fill="url(#sky)"/>
  <circle cx="432" cy="450" r="158.4" fill="url(#glow)"/>
  <circle cx="432" cy="450" r="66" fill="#dff0ea"/>
  <path d="M0 870 L180 750 L300 900 L444 765 L600 885 L600 960 L0 960 Z" fill="#0e2329" opacity="0.55"/>
  <rect y="960" width="600" height="540" fill="url(#ground)"/>
  <path d="M0 960 L240 885 L372 990 L600 915 L600 960 Z" fill="#0e2329" opacity="0.35"/>
  <ellipse cx="132" cy="960" rx="54.6" ry="23" fill="#000" opacity="0.18"/>
  <rect x="111" y="570" width="42" height="390" rx="21" fill="#0a181c"/>
  <circle cx="132" cy="561.6" r="26.04" fill="#0a181c"/>
</svg>