<svg xmlns="http://www.w3.org/2000/svg" viewBox="0 0 128 128" fill="none"><style>.bond{stroke:#003D66}.halo{fill:#FAF7F2}@media(prefers-color-scheme:dark){.bond{stroke:#4FA8DA}.halo{fill:#15110D}}</style><g transform="rotate(45 64 64)" stroke-linecap="round"><line x1="39" y1="39" x2="64" y2="39" stroke="#003D66" class="bond" stroke-width="5.2"/><line x1="39" y1="39" x2="39" y2="64" stroke="#003D66" class="bond" stroke-width="5.2"/><line x1="39" y1="64" x2="64" y2="64" stroke="#003D66" class="bond" stroke-width="5.2"/><line x1="39" y1="64" x2="39" y2="89" stroke="#003D66" class="bond" stroke-width="5.2"/><line x1="39" y1="89" x2="64" y2="89" stroke="#003D66" class="bond" stroke-width="5.2"/><line x1="64" y1="39" x2="89" y2="39" stroke="#003D66" class="bond" stroke-width="5.2"/><line x1="64" y1="39" x2="64" y2="64" stroke="#003D66" class="bond" stroke-width="5.2"/><line x1="64" y1="64" x2="89" y2="64" stroke="#003D66" class="bond" stroke-width="5.2"/><line x1="64" y1="64" x2="64" y2="89" stroke="#003D66" class="bond" stroke-width="5.2"/><line x1="64" y1="89" x2="89" y2="89" stroke="#003D66" class="bond" stroke-width="5.2"/><line x1="89" y1="39" x2="89" y2="64" stroke="#003D66" class="bond" stroke-width="5.2"/><line x1="89" y1="64" x2="89" y2="89" stroke="#003D66" class="bond" stroke-width="5.2"/></g><circle cx="64.0" cy="28.6" r="9.7" fill="#FAF7F2" class="halo"/><circle cx="64.0" cy="28.6" r="8.0" fill="#B66074"/><circle cx="46.3" cy="46.3" r="9.7" fill="#FAF7F2" class="halo"/><circle cx="46.3" cy="46.3" r="8.0" fill="#866EB2"/><circle cx="28.6" cy="64.0" r="9.7" fill="#FAF7F2" class="halo"/><circle cx="28.6" cy="64.0" r="8.0" fill="#5B86B8"/><circle cx="81.7" cy="46.3" r="9.7" fill="#FAF7F2" class="halo"/><circle cx="81.7" cy="46.3" r="8.0" fill="#CD8049"/><circle cx="64.0" cy="64.0" r="13.2" fill="#FAF7F2" class="halo"/><circle cx="64.0" cy="64.0" r="11.0" fill="#C8A040"/><circle cx="64.0" cy="64.0" r="7.4" fill="none" stroke="#7A5A10" stroke-width="1.5" opacity="0.55"/><circle cx="46.3" cy="81.7" r="9.7" fill="#FAF7F2" class="halo"/><circle cx="46.3" cy="81.7" r="8.0" fill="#866EB2"/><circle cx="99.4" cy="64.0" r="9.7" fill="#FAF7F2" class="halo"/><circle cx="99.4" cy="64.0" r="8.0" fill="#B8A032"/><circle cx="81.7" cy="81.7" r="9.7" fill="#FAF7F2" class="halo"/><circle cx="81.7" cy="81.7" r="8.0" fill="#CD8049"/><circle cx="64.0" cy="99.4" r="9.7" fill="#FAF7F2" class="halo"/><circle cx="64.0" cy="99.4" r="8.0" fill="#B66074"/></svg>
